<svg width="14" height="14" viewBox="0 0 14 14" fill="none" xmlns="http://www.w3.org/2000/svg">
<path d="M14 7C14 3.13359 10.8664 0 7 0C3.13359 0 0 3.13359 0 7C0 10.8664 3.13359 14 7 14C7.04102 14 7.08203 14 7.12305 13.9973V8.55039H5.61914V6.79766H7.12305V5.50703C7.12305 4.01133 8.03633 3.19648 9.3707 3.19648C10.0105 3.19648 10.5602 3.24297 10.7188 3.26484V4.82891H9.8C9.07539 4.82891 8.9332 5.17344 8.9332 5.6793V6.79492H10.6695L10.4426 8.54766H8.9332V13.7293C11.859 12.8898 14 10.1965 14 7Z" fill="#F7F8E7"/>
</svg>
