<svg width="273" height="110" viewBox="0 0 273 110" fill="none" xmlns="http://www.w3.org/2000/svg">
<path d="M2.82031 10.5469V15H1.32031V3.625H5.51562C6.76042 3.625 7.73438 3.94271 8.4375 4.57812C9.14583 5.21354 9.5 6.05469 9.5 7.10156C9.5 8.20573 9.15365 9.05729 8.46094 9.65625C7.77344 10.25 6.78646 10.5469 5.5 10.5469H2.82031ZM2.82031 9.32031H5.51562C6.31771 9.32031 6.93229 9.13281 7.35938 8.75781C7.78646 8.3776 8 7.83073 8 7.11719C8 6.4401 7.78646 5.89844 7.35938 5.49219C6.93229 5.08594 6.34635 4.875 5.60156 4.85938H2.82031V9.32031ZM17.8438 9.74219H12.9141V13.7734H18.6406V15H11.4141V3.625H18.5625V4.85938H12.9141V8.51562H17.8438V9.74219ZM28.875 11.3906C28.7344 12.5938 28.2891 13.5234 27.5391 14.1797C26.7943 14.8307 25.8021 15.1562 24.5625 15.1562C23.2188 15.1562 22.1406 14.6745 21.3281 13.7109C20.5208 12.7474 20.1172 11.4583 20.1172 9.84375V8.75C20.1172 7.69271 20.3047 6.76302 20.6797 5.96094C21.0599 5.15885 21.5964 4.54427 22.2891 4.11719C22.9818 3.6849 23.7839 3.46875 24.6953 3.46875C25.9036 3.46875 26.8724 3.80729 27.6016 4.48438C28.3307 5.15625 28.7552 6.08854 28.875 7.28125H27.3672C27.237 6.375 26.9531 5.71875 26.5156 5.3125C26.0833 4.90625 25.4766 4.70312 24.6953 4.70312C23.737 4.70312 22.9844 5.05729 22.4375 5.76562C21.8958 6.47396 21.625 7.48177 21.625 8.78906V9.89062C21.625 11.125 21.8828 12.1068 22.3984 12.8359C22.9141 13.5651 23.6354 13.9297 24.5625 13.9297C25.3958 13.9297 26.0339 13.7422 26.4766 13.3672C26.9245 12.987 27.2214 12.3281 27.3672 11.3906H28.875ZM38.5547 4.85938H34.8984V15H33.4062V4.85938H29.7578V3.625H38.5547V4.85938ZM48.7734 9.67969C48.7734 10.7943 48.5859 11.7682 48.2109 12.6016C47.8359 13.4297 47.3047 14.0625 46.6172 14.5C45.9297 14.9375 45.1276 15.1562 44.2109 15.1562C43.3151 15.1562 42.5208 14.9375 41.8281 14.5C41.1354 14.0573 40.5964 13.4297 40.2109 12.6172C39.8307 11.7995 39.6354 10.8542 39.625 9.78125V8.96094C39.625 7.86719 39.8151 6.90104 40.1953 6.0625C40.5755 5.22396 41.112 4.58333 41.8047 4.14062C42.5026 3.69271 43.2995 3.46875 44.1953 3.46875C45.1068 3.46875 45.9089 3.6901 46.6016 4.13281C47.2995 4.57031 47.8359 5.20833 48.2109 6.04688C48.5859 6.88021 48.7734 7.85156 48.7734 8.96094V9.67969ZM47.2812 8.94531C47.2812 7.59635 47.0104 6.5625 46.4688 5.84375C45.9271 5.11979 45.1693 4.75781 44.1953 4.75781C43.2474 4.75781 42.5 5.11979 41.9531 5.84375C41.4115 6.5625 41.1328 7.5625 41.1172 8.84375V9.67969C41.1172 10.987 41.3906 12.0156 41.9375 12.7656C42.4896 13.5104 43.2474 13.8828 44.2109 13.8828C45.1797 13.8828 45.9297 13.5312 46.4609 12.8281C46.9922 12.1198 47.2656 11.1068 47.2812 9.78906V8.94531ZM57.9609 4.85938H52.4766V8.26562H55.3047C56.4922 8.28125 57.4193 8.58594 58.0859 9.17969C58.7526 9.77344 59.0859 10.5807 59.0859 11.6016C59.0859 12.6276 58.75 13.4453 58.0781 14.0547C57.4062 14.6641 56.4896 14.9792 55.3281 15H50.9688V3.625H57.9609V4.85938ZM52.4766 9.5V13.7734H55.2188C55.9635 13.7734 56.5417 13.5755 56.9531 13.1797C57.3698 12.7839 57.5781 12.2526 57.5781 11.5859C57.5781 10.9453 57.3776 10.4401 56.9766 10.0703C56.5807 9.70052 56.0156 9.51042 55.2812 9.5H52.4766ZM67.3984 12.0312H62.6328L61.5625 15H60.0156L64.3594 3.625H65.6719L70.0234 15H68.4844L67.3984 12.0312ZM63.0859 10.7969H66.9531L65.0156 5.47656L63.0859 10.7969ZM73.0547 10.5469V15H71.5547V3.625H75.75C76.9948 3.625 77.9688 3.94271 78.6719 4.57812C79.3802 5.21354 79.7344 6.05469 79.7344 7.10156C79.7344 8.20573 79.388 9.05729 78.6953 9.65625C78.0078 10.25 77.0208 10.5469 75.7344 10.5469H73.0547ZM73.0547 9.32031H75.75C76.5521 9.32031 77.1667 9.13281 77.5938 8.75781C78.0208 8.3776 78.2344 7.83073 78.2344 7.11719C78.2344 6.4401 78.0208 5.89844 77.5938 5.49219C77.1667 5.08594 76.5807 4.875 75.8359 4.85938H73.0547V9.32031Z" fill="url(#paint0_linear)"/>
<path d="M41.9043 25.54H26.6602V67H16.4062V25.54H1.36719V17.2344H41.9043V25.54ZM77.7246 45.4326H58.0371V58.7627H81.1426V67H47.7832V17.2344H81.0742V25.54H58.0371V37.4004H77.7246V45.4326ZM100.557 17.2344L113.34 53.3281L126.055 17.2344H139.521V67H129.233V53.3965L130.259 29.915L116.826 67H109.785L96.3867 29.9492L97.4121 53.3965V67H87.1582V17.2344H100.557ZM177.188 56.7461H159.209L155.791 67H144.888L163.413 17.2344H172.915L191.543 67H180.64L177.188 56.7461ZM161.978 48.4404H174.419L168.164 29.8125L161.978 48.4404Z" fill="url(#paint1_linear)" fill-opacity="0.77"/>
<defs>
<linearGradient id="paint0_linear" x1="51" y1="0" x2="51" y2="76" gradientUnits="userSpaceOnUse">
<stop offset="0.875" stop-color="#C7C8BB"/>
<stop offset="1" stop-color="#8C8E1A" stop-opacity="0"/>
</linearGradient>
<linearGradient id="paint1_linear" x1="-75.6" y1="26.3906" x2="265.079" y2="48.4943" gradientUnits="userSpaceOnUse">
<stop offset="0.182292" stop-color="#424236"/>
<stop offset="0.402768" stop-color="#F7F8E7"/>
</linearGradient>
</defs>
</svg>
